<svg version="1.0" xmlns="http://www.w3.org/2000/svg" width="50" height="50" viewBox="0 0 1143.000000 1143.000000" preserveAspectRatio="xMidYMid meet">

<g transform="translate(0.000000,1143.000000) scale(0.100000,-0.100000)"
fill="#40B5AD" stroke="none">
<path d="M5515 10739 c-1175 -66 -2274 -517 -3170 -1300 -112 -97 -393 -381
-501 -504 -257 -293 -534 -706 -707 -1050 -281 -563 -454 -1133 -527 -1737
-109 -899 18 -1807 371 -2653 61 -144 228 -485 239 -485 13 0 105 103 147 166
61 90 136 235 186 359 89 221 140 396 322 1090 146 559 222 800 339 1073 255
599 586 1080 990 1440 159 141 174 154 496 397 335 254 538 414 775 610 313
258 722 548 897 635 124 61 150 49 199 -97 25 -75 39 -89 71 -72 13 6 88 75
168 153 80 78 169 157 198 175 102 65 192 49 192 -33 0 -50 -41 -197 -116
-416 -83 -244 -149 -457 -164 -537 -11 -53 -10 -65 5 -97 32 -68 100 -97 424
-186 159 -43 218 -70 361 -165 143 -94 277 -204 434 -355 113 -109 331 -348
397 -435 69 -92 139 -270 283 -725 88 -275 126 -336 376 -605 155 -167 210
-285 210 -452 0 -95 -27 -167 -89 -235 -64 -71 -68 -80 -76 -178 -9 -122 -43
-187 -146 -284 -44 -42 -84 -76 -89 -76 -12 0 -28 -49 -34 -107 -8 -68 -28
-114 -81 -189 -106 -148 -177 -180 -730 -323 -466 -120 -535 -153 -681 -326
-507 -600 -523 -1250 -45 -1758 242 -257 589 -443 991 -531 447 -98 847 -37
1194 181 375 237 661 467 966 779 827 847 1326 1934 1446 3149 22 217 24 685
5 905 -80 927 -370 1748 -882 2505 -213 314 -382 517 -661 790 -320 315 -649
571 -1003 780 -898 532 -1933 783 -2980 724z"/>
</g>
</svg>
