<svg width="54" height="54" viewBox="0 0 54 54" fill="none" xmlns="http://www.w3.org/2000/svg">
<rect width="54" height="54" rx="27" fill="#F7F7F7"/>
<path d="M22.74 41V30.6C22.74 29.92 22.6933 29.1667 22.6 28.34C22.5067 27.5133 22.2867 26.72 21.94 25.96C21.6067 25.1867 21.1 24.5533 20.42 24.06C19.7533 23.5667 18.8467 23.32 17.7 23.32C17.0867 23.32 16.48 23.42 15.88 23.62C15.28 23.82 14.7333 24.1667 14.24 24.66C13.76 25.14 13.3733 25.8067 13.08 26.66C12.7867 27.5 12.64 28.58 12.64 29.9L9.78 28.68C9.78 26.84 10.1333 25.1733 10.84 23.68C11.56 22.1867 12.6133 21 14 20.12C15.3867 19.2267 17.0933 18.78 19.12 18.78C20.72 18.78 22.04 19.0467 23.08 19.58C24.12 20.1133 24.9467 20.7933 25.56 21.62C26.1733 22.4467 26.6267 23.3267 26.92 24.26C27.2133 25.1933 27.4 26.08 27.48 26.92C27.5733 27.7467 27.62 28.42 27.62 28.94V41H22.74ZM7.76 41V19.4H12.06V26.1H12.64V41H7.76ZM31.6391 41V11.6H36.4591V41H31.6391Z" fill="#202020"/>
<rect x="41" y="36" width="5" height="5" rx="2.5" fill="#40B5AD"/>
</svg>
