<svg xmlns="http://www.w3.org/2000/svg" xmlns:xlink="http://www.w3.org/1999/xlink"><symbol id="icn-arrow" viewBox="0 0 18 16"><path d="M16.53 8.53a.75.75 0 000-1.06l-4.773-4.773a.75.75 0 00-1.06 1.06L14.939 8l-4.242 4.243a.75.75 0 001.06 1.06L16.53 8.53zM2 7.25a.75.75 0 000 1.5v-1.5zm14 0H2v1.5h14v-1.5z" fill="#currentColor"/></symbol><symbol id="icn-clip" viewBox="0 0 16 16"><g fill="currentColor"><path d="M1.801 5.963c.207.207.191.558-.035.783-.226.226-.576.242-.783.035-1.24-1.24-1.147-3.345.208-4.7l.819-.819c1.355-1.355 3.46-1.449 4.7-.208l8.236 8.235c1.24 1.24 1.147 3.345-.208 4.701l-.819.818c-1.355 1.356-3.46 1.45-4.7.209L3.603 9.402c-.206-.207-.19-.558.035-.784.226-.226.577-.241.784-.035l5.615 5.616c.827.827 2.23.764 3.134-.14l.818-.818c.904-.903.966-2.306.139-3.133L5.892 1.872c-.827-.827-2.23-.765-3.134.139l-.818.818c-.904.904-.966 2.307-.139 3.134z"/><path d="M8.956 13.398c.205.205.18.56-.054.795-.234.234-.59.258-.794.054L3.293 9.432c-.819-.818-.722-2.242.215-3.179l.424-.424c.938-.937 2.36-1.034 3.179-.216l4.815 4.815c.205.205.18.56-.054.795-.234.234-.59.259-.794.054L6.262 6.462c-.409-.41-1.12-.36-1.589.108l-.424.424c-.469.469-.517 1.18-.108 1.59l4.815 4.814z"/></g></symbol><symbol id="icn-close"><path d="M2 14L14 2M2 2l12 12" fill="none" stroke="#000" stroke-width="2"/></symbol><symbol id="icn-consult" viewBox="0 0 140.5 97.1"><path d="M55.1 92.5L30.3 72.4H0V0h118.7v25.7h-1V1H1v70.4h29.6l.1.1L54 90.4v-19h7v1h-5.9v20.1zm84.4-65.8H62v55.4h44.5v13L124 82.3l.3-.2h15.2V26.7m1-1v57.4h-15.9l-19.1 14v-14H61V25.7h79.5z"/></symbol><symbol id="icn-fb" viewBox="0 0 12 23"><path d="M7.657 12.365h3.722l.585-3.804H7.656V6.48c0-1.58.514-2.981 1.983-2.981H12V.18C11.585.123 10.708 0 9.05 0 5.588 0 3.559 1.84 3.559 6.03v2.53H0v3.805h3.559V22.82A14.33 14.33 0 005.71 23c.662 0 1.309-.06 1.947-.148V12.365z" fill="currentColor"/></symbol><symbol id="icn-git" viewBox="0 0 20 20"><path fill-rule="evenodd" clip-rule="evenodd" d="M9.97.24C4.464.24 0 4.705 0 10.21c0 4.403 2.875 8.134 6.789 9.48.49.06.673-.245.673-.49v-1.712c-2.753.611-3.364-1.346-3.364-1.346-.428-1.162-1.101-1.468-1.101-1.468-.917-.611.061-.611.061-.611.979.06 1.53 1.04 1.53 1.04.917 1.528 2.323 1.1 2.874.856a2.13 2.13 0 01.611-1.346c-2.201-.245-4.526-1.1-4.526-4.954 0-1.101.367-1.957 1.04-2.691-.061-.184-.428-1.223.122-2.569 0 0 .857-.245 2.753 1.04.795-.245 1.651-.306 2.507-.306.857 0 1.713.122 2.508.306 1.896-1.285 2.752-1.04 2.752-1.04.55 1.346.184 2.385.123 2.63a3.956 3.956 0 011.04 2.691c0 3.853-2.325 4.648-4.527 4.893.367.306.673.918.673 1.835V19.2c0 .245.184.55.673.49A9.98 9.98 0 0020 10.21C19.939 4.704 15.474.24 9.97.24z" fill="currentColor"/></symbol><symbol id="icn-in" viewBox="0 0 15 15"><path d="M15 8.744v5.516h-3.229V9.08c0-1.277-.47-2.152-1.614-2.152-.874 0-1.413.606-1.614 1.144-.068.202-.135.47-.135.807v5.381H5.18s.068-8.744 0-9.619h3.23v1.346c.403-.673 1.21-1.615 2.891-1.615 2.086 0 3.7 1.413 3.7 4.372zM1.816 0C.74 0 0 .74 0 1.682c0 .941.673 1.681 1.749 1.681 1.143 0 1.816-.74 1.816-1.681C3.632.672 2.96 0 1.816 0zM.202 14.26H3.43V4.641H.202v9.62z" fill="currentColor"/></symbol><symbol id="icn-mail" viewBox="0 0 24 24"><path d="M20 5H4a1 1 0 00-1 1v12a1 1 0 001 1h16a1 1 0 001-1V6a1 1 0 00-1-1z" stroke="currentColor" stroke-width="2" stroke-linecap="round" stroke-linejoin="round"/><path d="M3 6l9.257 7L21 6" stroke="currentColor" stroke-width="2" stroke-linecap="round" stroke-linejoin="round"/></symbol><symbol id="icn-map" viewBox="0 0 24 24"><path d="M12 11a2 2 0 100-4 2 2 0 000 4z" stroke="currentColor" stroke-width="2" stroke-linecap="round" stroke-linejoin="round"/><path d="M12 21s7-4.846 7-11.077a6.885 6.885 0 00-2.05-4.895A7.04 7.04 0 0012 3a7.04 7.04 0 00-4.95 2.028A6.885 6.885 0 005 9.923C5 16.153 12 21 12 21z" stroke="currentColor" stroke-width="2" stroke-linecap="round" stroke-linejoin="round"/></symbol><symbol id="icn-netcats" viewBox="0 0 1143 1143"><path d="M551.5 69.1c-117.5 6.6-227.4 51.7-317 130-11.2 9.7-39.3 38.1-50.1 50.4-25.7 29.3-53.4 70.6-70.7 105C85.6 410.8 68.3 467.8 61 528.2c-10.9 89.9 1.8 180.7 37.1 265.3 6.1 14.4 22.8 48.5 23.9 48.5 1.3 0 10.5-10.3 14.7-16.6 6.1-9 13.6-23.5 18.6-35.9 8.9-22.1 14-39.6 32.2-109 14.6-55.9 22.2-80 33.9-107.3 25.5-59.9 58.6-108 99-144 15.9-14.1 17.4-15.4 49.6-39.7 33.5-25.4 53.8-41.4 77.5-61 31.3-25.8 72.2-54.8 89.7-63.5 12.4-6.1 15-4.9 19.9 9.7 2.5 7.5 3.9 8.9 7.1 7.2 1.3-.6 8.8-7.5 16.8-15.3 8-7.8 16.9-15.7 19.8-17.5 10.2-6.5 19.2-4.9 19.2 3.3 0 5-4.1 19.7-11.6 41.6-8.3 24.4-14.9 45.7-16.4 53.7-1.1 5.3-1 6.5.5 9.7 3.2 6.8 10 9.7 42.4 18.6 15.9 4.3 21.8 7 36.1 16.5 14.3 9.4 27.7 20.4 43.4 35.5 11.3 10.9 33.1 34.8 39.7 43.5 6.9 9.2 13.9 27 28.3 72.5 8.8 27.5 12.6 33.6 37.6 60.5 15.5 16.7 21 28.5 21 45.2 0 9.5-2.7 16.7-8.9 23.5-6.4 7.1-6.8 8-7.6 17.8-.9 12.2-4.3 18.7-14.6 28.4-4.4 4.2-8.4 7.6-8.9 7.6-1.2 0-2.8 4.9-3.4 10.7-.8 6.8-2.8 11.4-8.1 18.9-10.6 14.8-17.7 18-73 32.3-46.6 12-53.5 15.3-68.1 32.6-50.7 60-52.3 125-4.5 175.8 24.2 25.7 58.9 44.3 99.1 53.1 44.7 9.8 84.7 3.7 119.4-18.1 37.5-23.7 66.1-46.7 96.6-77.9 82.7-84.7 132.6-193.4 144.6-314.9 2.2-21.7 2.4-68.5.5-90.5-8-92.7-37-174.8-88.2-250.5-21.3-31.4-38.2-51.7-66.1-79-32-31.5-64.9-57.1-100.3-78-89.8-53.2-193.3-78.3-298-72.4z" fill="currentColor"/></symbol><symbol id="icn-plan" viewBox="0 0 111 94.3"><path d="M111 79H0V0h111v79zM1 78h109V1H1v77zm55 .8h-1v14h1v-14zm22.5 14.5h-46v1h46v-1zM49 69.8c-4.7 0-8.5-3.8-8.5-8.5s3.8-8.5 8.5-8.5 8.5 3.8 8.5 8.5-3.8 8.5-8.5 8.5zm0-16c-4.1 0-7.5 3.4-7.5 7.5s3.4 7.5 7.5 7.5 7.5-3.4 7.5-7.5-3.4-7.5-7.5-7.5zm38.6-11.7L76.2 53.4l.7.7 11.3-11.3-.6-.7zm-10.7 0l-.7.7 11.3 11.3.7-.7-11.3-11.3zm-29.4-30L36.2 23.4l.7.7 11.3-11.3-.7-.7zm-10.6 0l-.7.7 11.3 11.3.7-.7-11.3-11.3zm-9.4 20L16.2 43.4l.7.7 11.3-11.3-.7-.7zm-10.6 0l-.7.7 11.3 11.3.7-.7-11.3-11.3zm39.4 25.7c4.1-2.9 9.7-7.9 13-15.6 3.8-8.7-1.3-25.1-1.5-25.8-.1-.2-.2-.3-.4-.3s-.4.1-.5.3l-4.4 9.2.9.4 3.9-8c1.1 4 4.3 16.8 1.2 23.8-3.3 7.5-8.7 12.3-12.7 15.1l-.4.3.6.8.3-.2zm19.1-35.1L67.3 16l-.6.8 8.1 6.7.6-.8z"/></symbol><symbol id="icn-powers-1" viewBox="0 0 64 64"><path fill="currentColor" d="M31 62C13.9 62 0 48.1 0 31S13.9 0 31 0s31 13.9 31 31-13.9 31-31 31zM31 .8C14.3.8.8 14.3.8 31S14.4 61.2 31 61.2 61.2 47.7 61.2 31 47.7.8 31 .8zM29.6 12c4.1-3.7 8.4-6.7 12.9-9 .2-.1.3-.3.2-.5-.1-.2-.3-.3-.5-.2-4.5 2.3-8.9 5.4-13 9.1-.2.1-.2.4 0 .5.1.1.2.1.3.1-.1.1 0 .1.1 0zM16.1 28.5c1.4-2.4 3-4.7 4.7-7 1-1.4 2.1-2.7 3.3-4 .1-.2.1-.4 0-.5s-.4-.1-.5 0c-1.1 1.3-2.2 2.6-3.3 4-1.7 2.3-3.3 4.6-4.8 7.1-.1.2 0 .4.1.5.1 0 .1.1.2.1s.2 0 .3-.2zm-8 21.9c.8-5.6 2.6-11.4 5.4-17.1.1-.2 0-.4-.2-.5-.2-.1-.4 0-.5.2-2.8 5.8-4.7 11.6-5.5 17.3 0 .2.1.4.3.4h.1c.2 0 .4-.1.4-.3zM57 45.9c.2 0 .3-.2.3-.4-.6-2.6-1.5-5.3-2.8-7.9-.1-.2-.3-.3-.5-.2-.2.1-.3.3-.2.5 1.2 2.5 2.2 5.1 2.7 7.7.1.2.3.3.5.3zm-6.3-14c.2-.1.2-.4.1-.5-4.5-6.1-10.7-11.2-18-14.8-.8-.4-1.6-.8-2.4-1.1-.2-.1-.4 0-.5.2-.1.2 0 .4.2.5.8.3 1.6.7 2.4 1.1 7.2 3.5 13.3 8.5 17.8 14.6.1.1.2.2.3.2-.1-.1 0-.2.1-.2zM23 13.4c.1-.2-.1-.4-.3-.5-2.7-.7-5.4-1.1-8-1.3-.2 0-.4.1-.4.3 0 .2.1.4.3.4 2.6.2 5.3.6 7.9 1.3h.1c.2.1.4 0 .4-.2zm-16.3-.9c1.2-.1 2.4-.2 3.6-.2.2 0 .4-.2.4-.4s-.2-.4-.4-.4c-1.2 0-2.5.1-3.7.2-.2 0-.4.2-.3.4 0 .3.2.4.4.4zm3.7 40.8c4.6-.2 9.3-1 14.1-2.4.2-.1.3-.3.3-.5-.1-.2-.3-.3-.5-.3-4.7 1.4-9.4 2.2-13.9 2.3-.2 0-.4.2-.4.4 0 .4.2.5.4.5zm19.9-4.4c2.3-.9 4.7-2 6.9-3.2 4.6-2.4 8.9-5.3 12.7-8.6.2-.1.2-.4 0-.5-.1-.2-.4-.2-.5 0-3.8 3.2-8 6.1-12.5 8.5-2.2 1.2-4.6 2.3-6.9 3.2-.2.1-.3.3-.2.5.1.1.2.2.3.2.1 0 .1 0 .2-.1zm25-17.1c1.9-2.1 3.6-4.3 5-6.5.1-.2.1-.4-.1-.5-.2-.1-.4-.1-.5.1-1.4 2.2-3.1 4.4-4.9 6.4-.1.2-.1.4 0 .5l.2.2c.1 0 .2-.1.3-.2zM38.8 60.1c.1-.2.1-.4-.1-.5-3.5-2.5-6.8-5.1-9.6-7.8-.1-.1-.4-.1-.5 0-.1.1-.1.4 0 .5 2.9 2.7 6.1 5.4 9.7 7.9.1 0 .1.1.2.1.1-.1.2-.1.3-.2zM24.9 47.9c.2-.1.2-.4 0-.5-3.9-4.5-7-9.2-9-14.1-.1-.2-.3-.3-.5-.2-.2.1-.3.3-.2.5 2.1 5 5.1 9.8 9.1 14.3.1.1.2.1.3.1.2 0 .2 0 .3-.1zM13.8 28.3c.2-.1.3-.3.3-.5-1.2-4.4-1.6-8.9-1.2-13.3 0-.2-.1-.4-.3-.4-.2 0-.4.1-.4.3-.4 4.5.1 9.1 1.3 13.6-.1.2.1.3.3.3-.1 0 0 0 0 0zm-.3-18.4c.6-2.9 1.4-4.7 1.4-4.7.1-.2 0-.4-.2-.5-.2-.1-.4 0-.5.2 0 .1-.8 1.8-1.4 4.9 0 .2.1.4.3.4h.1c.1 0 .2-.1.3-.3zm13 8.5c-2.2 0-4-1.8-4-4s1.8-4 4-4 4 1.8 4 4-1.8 4-4 4zm0-7.2c-1.8 0-3.3 1.5-3.3 3.3s1.5 3.3 3.3 3.3 3.3-1.5 3.3-3.3-1.5-3.3-3.3-3.3zm26 26.9c-2 0-3.7-1.7-3.7-3.7s1.7-3.7 3.7-3.7 3.7 1.7 3.7 3.7-1.6 3.7-3.7 3.7zm0-6.6c-1.6 0-3 1.3-3 3s1.3 3 3 3 3-1.3 3-3-1.3-3-3-3zM27.1 52.6c-1.7 0-3.1-1.4-3.1-3.1 0-1.7 1.4-3.1 3.1-3.1 1.7 0 3.1 1.4 3.1 3.1 0 1.7-1.4 3.1-3.1 3.1zm0-5.4c-1.3 0-2.3 1.1-2.3 2.3s1.1 2.3 2.3 2.3 2.3-1.1 2.3-2.3-1-2.3-2.3-2.3zM14.4 33.6c-1.5 0-2.8-1.3-2.8-2.8s1.3-2.8 2.8-2.8 2.8 1.3 2.8 2.8-1.3 2.8-2.8 2.8zm0-4.9c-1.1 0-2 .9-2 2s.9 2 2 2 2-.9 2-2-.9-2-2-2zm-1.8-14.2c-1.4 0-2.5-1.1-2.5-2.5s1.1-2.5 2.5-2.5 2.5 1.1 2.5 2.5-1.1 2.5-2.5 2.5zm0-4.2c-1 0-1.7.8-1.7 1.7s.8 1.7 1.7 1.7 1.7-.8 1.7-1.7-.8-1.7-1.7-1.7zm13.9 4.1"/></symbol><symbol id="icn-powers-2" viewBox="0 0 93 106"><path d="M2 53c0 6.431 1.299 12.645 3.861 18.468l-.916.402C2.327 65.919 1 59.57 1 53 1 27.52 21.363 6.791 46.394 6.791a44.299 44.299 0 0119.355 4.414L59.956 1.168l.706-.408 6.122 10.604.408.707-11.31 6.53-.408-.707 9.943-5.741a43.298 43.298 0 00-19.024-4.362C21.915 7.791 2 28.071 2 53zm85.751-19.078l-.914.407c2.621 5.88 3.95 12.162 3.95 18.67 0 24.929-19.915 45.209-44.394 45.209a43.36 43.36 0 01-18.463-4.083l-.351.753-.376-.651 10.604-6.122-.408-.707-10.604 6.122-.706.408 6.529 11.311.707-.408-5.604-9.706a44.329 44.329 0 0018.672 4.084c25.03 0 45.394-20.729 45.394-46.209 0-6.65-1.358-13.068-4.036-19.078zm-58.535-8.964H63.57v57.51H29.216v-57.51zm1 6.48H62.57v-5.48H30.216v5.48zm0 38.297H62.57V32.438H30.216v37.297zm0 11.733H62.57V70.735H30.216v10.733zm18.531-5.675c0 1.297-1.056 2.353-2.354 2.353s-2.354-1.056-2.354-2.353 1.056-2.353 2.354-2.353 2.354 1.056 2.354 2.353zm-1 0a1.355 1.355 0 00-2.708 0 1.355 1.355 0 002.708 0zM33.455 48.881l.707.707 11.696-11.697-.707-.707-11.696 11.697zm5.263-11.955l-.707-.707-4.556 4.555.707.707 4.556-4.555z"/></symbol><symbol id="icn-powers-3" viewBox="0 0 124.724 124.724"><path d="M85.947 119.805H38.778c-3.665 0-6.646-3.388-6.646-7.553V12.473c0-4.165 2.981-7.553 6.646-7.553h47.169c3.665 0 6.646 3.388 6.646 7.553v99.779c0 4.165-2.982 7.553-6.646 7.553zM38.778 6.42c-2.837 0-5.146 2.715-5.146 6.053v99.779c0 3.338 2.309 6.053 5.146 6.053h47.169c2.837 0 5.146-2.715 5.146-6.053V12.473c0-3.338-2.309-6.053-5.146-6.053H38.778z"/><path d="M32.882 20.92h58.96v1.5h-58.96zm0 81.385h58.96v1.5h-58.96zm29.374 14.036a5.292 5.292 0 01-5.286-5.286 5.291 5.291 0 015.286-5.285 5.291 5.291 0 015.285 5.285 5.291 5.291 0 01-5.285 5.286zm0-9.071a3.79 3.79 0 00-3.786 3.785 3.79 3.79 0 003.786 3.786 3.79 3.79 0 003.785-3.786 3.79 3.79 0 00-3.785-3.785zM53.29 12.92h9.071v1.5H53.29zm11.401 0h2.268v1.5h-2.268z"/><g fill="currentColor"><path d="M51.129 82.239a5.166 5.166 0 01-5.16-5.16c0-2.845 2.315-5.159 5.16-5.159s5.16 2.314 5.16 5.159a5.166 5.166 0 01-5.16 5.16zm0-8.819a3.664 3.664 0 00-3.66 3.659c0 2.019 1.642 3.66 3.66 3.66s3.66-1.642 3.66-3.66a3.664 3.664 0 00-3.66-3.659zm22.607 8.819a5.166 5.166 0 01-5.16-5.16c0-2.845 2.315-5.159 5.16-5.159s5.16 2.314 5.16 5.159a5.166 5.166 0 01-5.16 5.16zm0-8.819a3.664 3.664 0 00-3.66 3.659c0 2.019 1.642 3.66 3.66 3.66s3.66-1.642 3.66-3.66a3.664 3.664 0 00-3.66-3.659zm2.348-3.818h-.032l-31.958-.104.005-1.5 31.958.104h.027c2.187 0 4.243-.85 5.793-2.394a8.151 8.151 0 002.413-5.812v-5.802a.947.947 0 00-.946-.946l-39.061-2.793.107-1.496 39.007 2.791h.003c1.293 0 2.389 1.096 2.389 2.444v5.802a9.642 9.642 0 01-2.854 6.874 9.639 9.639 0 01-6.851 2.832z"/><path d="M73.736 73.42H45.791a2.449 2.449 0 01-2.445-2.446V46.831l-4.103-2.99.884-1.212 4.719 3.439v24.906c0 .521.424.946.945.946h27.945v1.5z"/><path d="M45.969 52.358h1.5v7.937h-1.5zm0 9.817h1.5v1.508h-1.5z"/></g></symbol><symbol id="icn-powers-4" viewBox="0 0 100 106"><path fill="currentColor" d="M100 68v1H0v-1h100zM61 84H39l-4.6 16h31.3L61 84m.8-1l5.2 18H33l5.2-18h23.6zm8.2 18H30v4h40v-4m1-1v6H29v-6h42zM49 20H13v44h36V20m1-1v46H12V19h38zM71 2.1L50 19.6v43.3l21-17.5V2.1M72 0v45.9L49 65V19.1L72 0zM50 74c-1.1 0-2 .9-2 2s.9 2 2 2 2-.9 2-2-.9-2-2-2m0-1c1.7 0 3 1.3 3 3s-1.3 3-3 3-3-1.3-3-3 1.3-3 3-3zm36-54h-7v1h7v-1zm0 0h-1v46h1V19zM48 65h38v-1H48v1zm52-53H79v1h21v-1zm0 0h-1v72h1V12zm0 71H0v1h100v-1zM0 84h1V12H0v72zm56-72H0v1h56v-1zm23-5h-1v46.4h1V7zm0 46L49 64v1l30-11v-1zm0-46l-7 3v1l7-3V7z"/></symbol><symbol id="icn-powers-5" viewBox="0 0 124.724 124.724"><path d="M85.947 119.805H38.778c-3.665 0-6.646-3.388-6.646-7.553V12.473c0-4.165 2.981-7.553 6.646-7.553h47.169c3.665 0 6.646 3.388 6.646 7.553v99.779c0 4.165-2.982 7.553-6.646 7.553zM38.778 6.42c-2.837 0-5.146 2.715-5.146 6.053v99.779c0 3.338 2.309 6.053 5.146 6.053h47.169c2.837 0 5.146-2.715 5.146-6.053V12.473c0-3.338-2.309-6.053-5.146-6.053H38.778z"/><path d="M32.882 20.92h58.96v1.5h-58.96zm0 81.385h58.96v1.5h-58.96zm29.374 14.036a5.292 5.292 0 01-5.286-5.286 5.291 5.291 0 015.286-5.285 5.291 5.291 0 015.285 5.285 5.291 5.291 0 01-5.285 5.286zm0-9.071a3.79 3.79 0 00-3.786 3.785 3.79 3.79 0 003.786 3.786 3.79 3.79 0 003.785-3.786 3.79 3.79 0 00-3.785-3.785zM53.29 12.92h9.071v1.5H53.29zm11.401 0h2.268v1.5h-2.268zm-2.329 68.146a.74.74 0 01-.38-.104l-17.008-10a.75.75 0 01-.37-.646V53.308a.75.75 0 011.13-.647l17.008 10a.75.75 0 01.37.646v17.008a.75.75 0 01-.75.751zM46.104 69.887l15.508 9.118V63.737l-15.508-9.118v15.268z"/><path d="M62.362 81.066a.752.752 0 01-.75-.75V63.308c0-.266.141-.512.37-.646l17.008-10a.751.751 0 011.13.647v17.008a.748.748 0 01-.37.646l-17.008 10a.746.746 0 01-.38.103zm.75-17.329v15.268l15.508-9.118V54.619l-15.508 9.118z"/><path d="M62.362 64.058a.75.75 0 01-.38-.104l-17.008-10a.752.752 0 01.03-1.31l16.901-8.899a.75.75 0 01.696-.002l17.115 8.899a.75.75 0 01.034 1.312l-17.008 10a.747.747 0 01-.38.104zM46.896 53.344l15.467 9.094 15.459-9.09-15.564-8.093-15.362 8.089zm-7.211-12.909a.75.75 0 01-.75-.75v-9.921a2.17 2.17 0 012.167-2.167h9.921a.75.75 0 010 1.5h-9.921a.667.667 0 00-.667.667v9.921a.75.75 0 01-.75.75zm45.355 0a.75.75 0 01-.75-.75v-9.921a.667.667 0 00-.667-.667h-9.921a.75.75 0 010-1.5h9.921a2.17 2.17 0 012.167 2.167v9.921a.75.75 0 01-.75.75zM51.023 97.128h-9.921a2.17 2.17 0 01-2.167-2.167v-9.922a.75.75 0 011.5 0v9.922c0 .368.299.667.667.667h9.921a.75.75 0 010 1.5zm32.599 0h-9.921a.75.75 0 010-1.5h9.921a.667.667 0 00.667-.667v-9.922a.75.75 0 011.5 0v9.922a2.169 2.169 0 01-2.167 2.167z"/></symbol><symbol id="icn-powers-6" viewBox="0 0 124.7 124.7"><path class="st0" d="M62.8 102.5c-37 0-57.2-39.7-57.4-40.1l-.2-.3.2-.3c.2-.4 20.3-40.1 57.4-40.1s57.2 39.7 57.4 40.1l.2.3-.2.3c-.2.4-20.4 40.1-57.4 40.1zM7 62.1C9 65.9 28.5 101 62.8 101s53.8-35.1 55.8-38.9c-2-3.8-21.5-38.9-55.8-38.9S9 58.3 7 62.1z"/><path class="st0" d="M62.8 91.2c-16 0-29.1-13.1-29.1-29.1C33.7 46 46.8 33 62.8 33c.4 0 .8.3.8.8v27.6h27.6c.4 0 .8.3.8.8-.1 15.9-13.1 29-29.2 29zm-.7-56.7c-14.9.4-26.8 12.6-26.8 27.6 0 15.2 12.4 27.6 27.6 27.6 15 0 27.2-12 27.6-26.8H62.8c-.4 0-.8-.3-.8-.8V34.5z"/><path class="st0" d="M62.8 62.8c-.2 0-.4-.1-.5-.2L42.9 41.9c-.3-.3-.3-.8 0-1.1 5.4-5.1 12.5-7.9 19.9-7.9.4 0 .8.3.8.8V62c0 .3-.2.6-.5.7-.1.1-.2.1-.3.1zM44.5 41.5l17.6 18.7V34.5c-6.6.2-12.7 2.6-17.6 7z"/><path class="st0" d="M94 62.8H62.8c-.4 0-.8-.3-.8-.8V30.9c0-.4.3-.8.8-.8 17.6 0 31.9 14.3 31.9 31.9 0 .5-.3.8-.7.8zm-30.4-1.5h29.7C92.9 45.1 79.8 32 63.6 31.6v29.7zm-.8-38.1c-.2 0-.4-.1-.5-.2-.3-.3-.3-.8 0-1.1l11.8-11.8c.3-.3.8-.3 1.1 0s.3.8 0 1.1L63.3 22.9c-.1.2-.3.3-.5.3z"/><path class="st0" d="M102.9 11.4H74.6c-.4 0-.8-.3-.8-.8s.3-.8.8-.8h28.3c.4 0 .8.3.8.8s-.4.8-.8.8z"/><path class="st0" d="M105.9 14.2c-2 0-3.6-1.6-3.6-3.6s1.6-3.6 3.6-3.6 3.6 1.6 3.6 3.6-1.6 3.6-3.6 3.6zm0-5.7c-1.1 0-2.1.9-2.1 2.1s.9 2.1 2.1 2.1 2.1-.9 2.1-2.1-1-2.1-2.1-2.1zM51 114.3c-.2 0-.4-.1-.5-.2-.3-.3-.3-.8 0-1.1l11.8-11.8c.3-.3.8-.3 1.1 0s.3.8 0 1.1l-11.8 11.8c-.2.1-.4.2-.6.2z"/><path class="st0" d="M51 114.3H22.7c-.4 0-.8-.3-.8-.8s.3-.8.8-.8H51c.4 0 .8.3.8.8s-.4.8-.8.8z"/><path class="st0" d="M19.7 117.2c-2 0-3.6-1.6-3.6-3.6s1.6-3.6 3.6-3.6 3.6 1.6 3.6 3.6-1.6 3.6-3.6 3.6zm0-5.7c-1.1 0-2.1.9-2.1 2.1s.9 2.1 2.1 2.1 2.1-.9 2.1-2.1-.9-2.1-2.1-2.1z"/></symbol><symbol id="icn-powers-7" viewBox="0 0 124.724 124.724"><path d="M60.949 116.97h-6.976c-1.225 0-2.208-.929-2.338-2.209l-1.63-9.818a1.174 1.174 0 00-.83-.93 43.139 43.139 0 01-9.361-3.881 1.174 1.174 0 00-1.24.072l-8.24 5.886c-.847.718-2.25.65-3.081-.184l-9.855-9.862c-.873-.873-.905-2.196-.079-3.218l5.778-8.107c.264-.358.291-.84.074-1.234a42.505 42.505 0 01-3.881-9.353 1.174 1.174 0 00-.926-.83l-9.996-1.655c-1.14-.121-2.031-1.119-2.031-2.315v-13.94c0-1.233.906-2.195 2.202-2.337l9.825-1.643c.447-.073.801-.389.928-.827a42.315 42.315 0 013.884-9.344c.214-.397.19-.879-.071-1.247l-5.891-8.244c-.737-.879-.673-2.221.183-3.077l9.856-9.856c.881-.882 2.172-.921 3.212-.095l8.123 5.795c.361.264.845.292 1.239.075a42.424 42.424 0 019.353-3.882c.425-.123.75-.488.824-.929l1.656-9.984c.116-1.145 1.113-2.042 2.313-2.042h6.976v1.5h-6.976a.818.818 0 00-.827.742l-1.662 10.031a2.681 2.681 0 01-1.891 2.125 40.896 40.896 0 00-9.035 3.75 2.66 2.66 0 01-2.849-.169l-8.146-5.813c-.483-.381-.904-.386-1.25-.042l-9.856 9.856a.812.812 0 00-.057 1.1l5.927 8.291c.595.838.656 1.927.161 2.842a40.855 40.855 0 00-3.754 9.031 2.642 2.642 0 01-2.127 1.895L8.745 54.54c-.568.063-.908.396-.908.852v13.94c0 .435.309.784.733.83l10.04 1.662a2.683 2.683 0 012.124 1.901 40.946 40.946 0 003.749 9.032c.5.912.432 2.024-.17 2.843l-5.799 8.135c-.365.453-.375.929-.054 1.25l9.856 9.863c.28.282.804.311 1.099.06l8.294-5.927a2.689 2.689 0 012.836-.158 41.653 41.653 0 009.044 3.749 2.685 2.685 0 011.896 2.126l1.637 9.866c.058.554.405.907.852.907h6.976v1.499zm-.005-31.047c-12.997 0-23.57-10.569-23.57-23.56 0-12.997 10.573-23.57 23.57-23.57v1.5c-12.169 0-22.07 9.9-22.07 22.07 0 12.164 9.9 22.06 22.07 22.06v1.5zm0-3.807c-10.893 0-19.755-8.861-19.755-19.753 0-10.898 8.862-19.765 19.755-19.765v1.5c-10.066 0-18.255 8.194-18.255 18.265 0 10.065 8.189 18.253 18.255 18.253v1.5z"/><path d="M60.945 119.805v-1.5c30.847 0 55.942-25.096 55.942-55.942S91.792 6.42 60.945 6.42v-1.5c31.674 0 57.442 25.769 57.442 57.442s-25.768 57.443-57.442 57.443z"/><path d="M60.195 120.434V4.291l1.158.75c1.264.818 30.956 20.453 31.229 56.807.279 37.005-29.943 57.003-31.229 57.837l-1.158.749zm1.5-113.338v110.532c5.684-4.071 29.633-23.176 29.387-55.769-.241-31.983-23.764-50.735-29.387-54.763z"/><path d="M68.397 39.153c-3.46 0-6.269-.452-7.972-.817l.314-1.467c4.041.866 14.563 2.242 24.973-3.669 6.749-3.832 10.778-9.169 12.97-12.972l1.3.749c-2.285 3.964-6.487 9.529-13.53 13.528-6.463 3.67-12.964 4.648-18.055 4.648zm30.25 65.755c-1.596-3.577-5.431-10.236-13.186-14.654-10.191-5.804-20.307-3.98-24.182-2.928l-.394-1.447c4.055-1.103 14.641-3.009 25.318 3.072 8.127 4.629 12.144 11.602 13.814 15.346l-1.37.611zM61.082 61.613h56.555v1.5H61.082z"/></symbol><symbol id="icn-powers-8" viewBox="0 0 124.724 124.724"><path d="M72.877 119.805l-.152-.001c-3.837-.055-7.32-2.151-10.365-6.236-3.042 4.085-6.526 6.182-10.365 6.236l-.148.001c-7.351 0-13.211-7.835-15.077-10.649-3.363-.805-5.839-2.497-7.365-5.031-1.851-3.074-1.731-6.628-1.412-8.766-8.252-4.675-10.063-13.802-9.075-20.493-8.354-6.313-9.325-14.039-8.65-19.444.583-4.659 2.471-8.407 3.374-9.981-.568-9.925 1.452-17.437 6.006-22.327a17.102 17.102 0 019.611-5.238c3.012-6.037 8.052-7.934 11.937-7.689 6.24-5.676 12.036-5.759 15.817-4.814 2.276.569 4.108 1.579 5.349 2.423 1.244-.845 3.078-1.855 5.348-2.423 3.784-.944 9.579-.86 15.817 4.814 3.888-.245 8.924 1.654 11.937 7.689a17.11 17.11 0 019.611 5.238c4.554 4.891 6.574 12.403 6.006 22.327.903 1.577 2.792 5.328 3.374 9.981.676 5.404-.295 13.13-8.65 19.444.988 6.691-.823 15.818-9.076 20.493.32 2.138.439 5.692-1.412 8.766-1.526 2.534-4.002 4.227-7.365 5.031-1.871 2.823-7.728 10.649-15.075 10.649zm-10.516-8.856l.619.903c2.897 4.229 6.184 6.4 9.768 6.451l.131.001c6.825 0 12.421-7.813 13.982-10.221l.167-.258.3-.066c3.098-.683 5.354-2.167 6.704-4.409 1.762-2.926 1.466-6.431 1.132-8.26l-.099-.54.485-.258c10.506-5.567 9.092-17.332 8.702-19.634l-.078-.457.374-.273c8.108-5.932 9.052-13.238 8.417-18.321-.573-4.585-2.495-8.246-3.294-9.606l-.116-.197.014-.229c.586-9.611-1.295-16.824-5.593-21.44a15.581 15.581 0 00-9.125-4.839l-.398-.058-.172-.364c-2.743-5.798-7.448-7.506-10.951-7.17l-.336.032-.247-.23C76.91 6.069 71.546 5.96 68.074 6.826c-2.322.581-4.148 1.675-5.271 2.492l-.441.321-.442-.322c-1.119-.815-2.941-1.909-5.271-2.491-3.472-.867-8.835-.76-14.675 4.681l-.247.23-.336-.032c-3.498-.343-8.208 1.37-10.951 7.17l-.172.364-.399.058a15.573 15.573 0 00-9.124 4.839c-4.297 4.615-6.179 11.828-5.593 21.44l.014.229-.116.198c-.799 1.359-2.72 5.015-3.294 9.606-.635 5.084.311 12.39 8.417 18.321l.374.273-.078.457c-.39 2.302-1.804 14.066 8.701 19.634l.485.258-.099.54c-.333 1.828-.629 5.334 1.132 8.26 1.35 2.242 3.605 3.727 6.704 4.409l.3.066.167.258c1.554 2.397 7.155 10.221 13.985 10.221l.122-.001c3.592-.051 6.878-2.222 9.772-6.451l.623-.905zm.048-98.979l-.01-1.5h.01v1.5z" fill="currentColor"/><path fill="currentColor" d="M61.612 8.711h1.5v103.565h-1.5zM44.29 39.83c-4.957 0-8.989-4.032-8.989-8.989 0-4.956 4.032-8.988 8.989-8.988s8.989 4.032 8.989 8.988c0 4.956-4.032 8.989-8.989 8.989zm0-16.477c-4.129 0-7.489 3.359-7.489 7.488 0 4.129 3.359 7.489 7.489 7.489s7.489-3.359 7.489-7.489c0-4.129-3.36-7.488-7.489-7.488zm-15 42.477c-4.957 0-8.989-4.032-8.989-8.989 0-4.956 4.032-8.988 8.989-8.988s8.989 4.032 8.989 8.988c0 4.956-4.032 8.989-8.989 8.989zm0-16.477c-4.129 0-7.489 3.359-7.489 7.488 0 4.129 3.359 7.489 7.489 7.489s7.489-3.359 7.489-7.489c0-4.129-3.36-7.488-7.489-7.488zm19 34.477c-4.957 0-8.989-4.032-8.989-8.989 0-4.956 4.032-8.988 8.989-8.988s8.989 4.032 8.989 8.988c0 4.957-4.032 8.989-8.989 8.989zm0-16.477c-4.129 0-7.489 3.359-7.489 7.488 0 4.13 3.359 7.489 7.489 7.489s7.489-3.359 7.489-7.489c0-4.129-3.36-7.488-7.489-7.488zm0 37.477c-4.957 0-8.989-4.032-8.989-8.989 0-4.956 4.032-8.988 8.989-8.988s8.989 4.032 8.989 8.988c0 4.957-4.032 8.989-8.989 8.989zm0-16.477c-4.129 0-7.489 3.359-7.489 7.488 0 4.13 3.359 7.489 7.489 7.489s7.489-3.359 7.489-7.489c0-4.129-3.36-7.488-7.489-7.488z"/><path fill="currentColor" d="M43.54 39.08h1.5v17.761h-1.5z"/><path fill="currentColor" d="M37.529 56.091h11.272v1.5H37.529z"/><path fill="currentColor" d="M47.54 56.841h1.5v9.762h-1.5zm0 26.239h1.5v4.522h-1.5zm27.948-62.47c-.105-.439-.945-4.383 1.836-7.506 2.209-2.481 5.185-2.733 6.044-2.751l.031 1.5c-.706.015-3.15.22-4.956 2.249-2.275 2.555-1.584 5.799-1.498 6.16l-1.457.348zM89.5 37.913c-4.049-2.419-6.11-7.279-5.011-11.82 1.156-4.774 5.426-8.163 10.384-8.24l.023 1.5c-4.275.066-7.955 2.983-8.95 7.093-.946 3.909.832 8.095 4.323 10.18l-.769 1.287zm-21.633 1.845c-.462 0-.928-.025-1.398-.077l.164-1.491c4.363.479 8.571-1.74 10.235-5.398 1.794-3.943-.082-7.771-.477-8.499l1.318-.715c.454.837 2.612 5.245.523 9.835-1.777 3.909-5.836 6.345-10.365 6.345z"/><path d="M94.974 49.376c-2.04 0-4.074-.477-5.934-1.441-1.864-.967-2.578-2.648-3.333-4.427-.722-1.699-1.468-3.457-3.304-4.998-1.732-1.453-3.91-2.407-6.475-2.835l.247-1.479c2.833.473 5.252 1.538 7.192 3.165 2.112 1.772 2.967 3.785 3.721 5.561.703 1.655 1.258 2.963 2.643 3.682 3.752 1.945 8.312 1.644 11.9-.789l.842 1.241a13.373 13.373 0 01-7.499 2.32zm8.009 25.717c-2.862 0-5.663-.486-8.352-1.451-5.523-1.983-9.122-5.485-11.168-8.074l1.177-.931c1.925 2.436 5.31 5.729 10.499 7.592a23.228 23.228 0 009.689 1.292l.114 1.496c-.656.05-1.309.076-1.959.076zM80.496 97.439c-4.885-5.381-6.909-10.366-6.014-14.817.411-2.046 1.375-3.478 2.226-4.74.935-1.388 1.672-2.482 1.594-4.075-.25-5.042-4.393-9.417-10.075-10.638l.315-1.467c6.345 1.364 10.975 6.311 11.258 12.03.104 2.091-.888 3.563-1.848 4.987-.81 1.202-1.647 2.445-2 4.197-.796 3.959 1.106 8.506 5.653 13.515l-1.109 1.008z" fill="currentColor"/><path d="M89.483 84.088c-.087-.418-.956-4.135-4.553-5.626-2.794-1.158-6.077-.498-8.361 1.684l-1.036-1.086c2.715-2.591 6.629-3.369 9.972-1.982 4.31 1.785 5.343 6.207 5.447 6.706l-1.469.304z" fill="currentColor"/></symbol><symbol id="icn-skype" viewBox="0 0 21 21"><path d="M20.318 12.068c.068-.545.136-1.022.136-1.568 0-5.455-4.431-9.955-9.954-9.955-.545 0-1.023.069-1.568.137A5.84 5.84 0 006.136 0 6.11 6.11 0 000 6.136c0 .955.205 1.91.682 2.796C.614 9.477.545 9.955.545 10.5c0 5.454 4.432 9.954 9.955 9.954.546 0 1.023-.068 1.568-.136.886.41 1.841.682 2.796.682A6.11 6.11 0 0021 14.864c0-.955-.273-1.91-.682-2.796zm-5.659 2.046a2.55 2.55 0 01-.886 1.022c-.41.273-.819.478-1.364.614a7.603 7.603 0 01-1.84.204c-1.433 0-2.592-.34-3.41-.954-.477-.41-.886-.886-1.09-1.5-.274-.546.204-1.227.886-1.227h.204c.41 0 .818.273.955.613.136.341.34.614.613.819.41.34 1.023.477 1.773.477.682 0 1.227-.136 1.636-.341.41-.205.614-.614.614-1.023 0-.204-.068-.34-.136-.477-.069-.136-.273-.273-.41-.341-.204-.136-.409-.204-.75-.273-.272-.068-.613-.204-1.022-.273l-.41-.136c-.477-.136-1.022-.272-1.431-.409a5.115 5.115 0 01-1.227-.545 2.072 2.072 0 01-.819-.887c-.204-.34-.272-.818-.272-1.363 0-.546.136-1.023.34-1.432.205-.41.546-.75.887-.955.41-.272.818-.477 1.364-.545a5.966 5.966 0 011.636-.205 7.01 7.01 0 011.773.205c.545.136.954.34 1.363.682.41.272.682.613.887 1.09.34.614-.137 1.432-.887 1.432h-.204c-.41 0-.75-.204-.955-.545A3.752 3.752 0 0012 7.227c-.34-.272-.886-.409-1.5-.409s-1.09.137-1.432.341c-.34.205-.477.546-.477.886 0 .205.068.341.136.478a.698.698 0 00.41.34c.204.069.408.205.681.273.273.069.614.137 1.023.273.409.068.75.205 1.159.273.34.068.682.204 1.023.273.34.136.613.272.886.409.273.136.477.34.682.545.205.205.34.477.409.75.136.273.136.682.136 1.091-.136.477-.272.954-.477 1.364z" fill="currentColor"/></symbol><symbol id="icn-soft" viewBox="0 0 92 97"><path d="M1 0v97H0V0h1zm91 0h-1v97h1V0zm-1 0H0v1h91V0zm1 96H0v1h92v-1zM81 49H35v1h46v-1zm-29 7H35v1h17v-1zm28-45H13v26h67V11m1-1v28H12V10h69zM25 48H13v12h12V48m1-1v14H12V47h14zm55 24H35v1h46v-1zm-29 7H35v1h17v-1zm-27-8H13v12h12V70m1-1v14H12V69h14zm54.2-57.5l-.4-.9-67 26 .4.9 67-26zm0 25l-67-26-.4.9 67 26 .4-.9z"/></symbol><symbol id="icn-tel" viewBox="0 0 24 24"><path d="M9.503 4.257l-.929.372.929-.372zm1.054 2.636l.929-.372-.929.372zm-.32 2.023l.768.64-.768-.64zm-.568.68l.768.641-.768-.64zm.122 2.695L9.084 13l.707-.708zm1.918 1.918l.707-.708-.707.708zm2.694.122l-.64-.768.64.768zm.681-.568l.64.769-.64-.769zm2.023-.32l-.371.928.371-.928zm2.636 1.054l.371-.928-.371.928zM4.895 4h2.75V2h-2.75v2zm3.68.629l1.054 2.635 1.857-.743-1.055-2.635-1.857.743zm.893 3.647l-.567.68 1.537 1.281.567-.68-1.537-1.281zm-.384 4.723l1.917 1.917 1.415-1.415-1.917-1.917L9.084 13zm5.96 2.1l.68-.567-1.28-1.537-.681.568 1.28 1.536zm1.692-.728l2.635 1.055.743-1.857-2.636-1.055-.742 1.857zM20 16.354v2.751h2v-2.75h-2zM19.105 20C10.763 20 4 13.237 4 4.895H2C2 14.342 9.658 22 19.105 22v-2zm.895-.895c0 .494-.4.895-.895.895v2A2.895 2.895 0 0022 19.105h-2zm-.629-3.68a1 1 0 01.629.93h2a3 3 0 00-1.886-2.786l-.743 1.857zm-3.647-.893a1 1 0 011.012-.16l.742-1.858a3 3 0 00-3.034.481l1.28 1.537zm-4.723.384a3 3 0 004.042.183l-1.28-1.537a1 1 0 01-1.347-.06L11 14.915zm-2.1-5.96A3 3 0 009.084 13l1.415-1.415a1 1 0 01-.062-1.347l-1.536-1.28zm.728-1.692a1 1 0 01-.16 1.012l1.536 1.28a3 3 0 00.48-3.035l-1.856.743zM7.646 4a1 1 0 01.928.629l1.857-.743A3 3 0 007.646 2v2zM4.895 2A2.895 2.895 0 002 4.895h2C4 4.4 4.4 4 4.895 4V2z" fill="currentColor"/></symbol><symbol id="icn-tg" viewBox="0 0 19 17"><path d="M19 .602l-3.005 15.69s-.42 1.088-1.576.566l-6.934-5.505-.033-.017c.937-.87 8.2-7.633 8.518-7.94.491-.475.186-.757-.384-.399l-10.73 7.056L.719 8.611s-.652-.24-.714-.762c-.064-.522.735-.805.735-.805L17.613.189S19-.442 19 .602z" fill="currentColor"/></symbol><symbol id="icn-wp" viewBox="0 0 21 21"><path d="M17.927 3.063A10.428 10.428 0 0010.537 0C4.757 0 .073 4.667.073 10.427c0 1.823.512 3.646 1.39 5.177L0 21l5.561-1.458c1.537.802 3.22 1.24 4.976 1.24 5.78 0 10.463-4.667 10.463-10.428-.073-2.698-1.098-5.323-3.073-7.291zm-2.342 11.083c-.22.583-1.244 1.166-1.756 1.24a4.104 4.104 0 01-1.61-.073c-.365-.146-.877-.292-1.463-.584-2.634-1.094-4.317-3.719-4.463-3.937-.147-.146-1.098-1.386-1.098-2.698 0-1.313.659-1.896.878-2.188.22-.291.512-.291.732-.291h.512c.146 0 .366-.073.585.437.22.51.732 1.823.805 1.896a.463.463 0 010 .437 1.525 1.525 0 01-.292.438c-.147.146-.293.364-.366.437-.147.146-.293.292-.147.51.147.293.659 1.095 1.464 1.824 1.024.875 1.83 1.166 2.122 1.312.293.146.439.073.585-.073.146-.146.659-.729.805-1.02.146-.292.366-.22.585-.146.22.073 1.537.729 1.757.875.292.146.438.218.512.291.073.22.073.73-.147 1.313z" fill="currentcolor"/></symbol></svg>